<?xml version="1.0" encoding="UTF-8" standalone="no"?>
<!-- Created with Inkscape (http://www.inkscape.org/) -->

<svg
   xmlns:dc="http://purl.org/dc/elements/1.1/"
   xmlns:cc="http://creativecommons.org/ns#"
   xmlns:rdf="http://www.w3.org/1999/02/22-rdf-syntax-ns#"
   xmlns:svg="http://www.w3.org/2000/svg"
   xmlns="http://www.w3.org/2000/svg"
   xmlns:sodipodi="http://sodipodi.sourceforge.net/DTD/sodipodi-0.dtd"
   xmlns:inkscape="http://www.inkscape.org/namespaces/inkscape"
   width="128"
   height="128"
   id="svg2"
   version="1.1"
   inkscape:version="0.48.0 r9654"
   sodipodi:docname="symbol.svg">
  <defs
     id="defs4" />
  <sodipodi:namedview
     id="base"
     pagecolor="#ffffff"
     bordercolor="#666666"
     borderopacity="1.0"
     inkscape:pageopacity="0.0"
     inkscape:pageshadow="2"
     inkscape:zoom="0.98994949"
     inkscape:cx="209.99002"
     inkscape:cy="149.11054"
     inkscape:document-units="px"
     inkscape:current-layer="layer1"
     showgrid="false"
     inkscape:window-width="1600"
     inkscape:window-height="847"
     inkscape:window-x="0"
     inkscape:window-y="24"
     inkscape:window-maximized="1" />
  <metadata
     id="metadata7">
    <rdf:RDF>
      <cc:Work
         rdf:about="">
        <dc:format>image/svg+xml</dc:format>
        <dc:type
           rdf:resource="http://purl.org/dc/dcmitype/StillImage" />
        <dc:title></dc:title>
      </cc:Work>
    </rdf:RDF>
  </metadata>
  <g
     inkscape:label="Layer 1"
     inkscape:groupmode="layer"
     id="layer1"
     transform="translate(0,-924.36218)">
    <g
       transform="matrix(0.71533357,0,0,0.71433554,-19.448131,883.79377)"
       style="font-size:40px;font-style:normal;font-weight:normal;line-height:125%;letter-spacing:0px;word-spacing:0px;fill:#000000;fill-opacity:1;stroke:none;font-family:Sans"
       id="flowRoot2985">
      <path
         d="M 116.375,235.97932 C 100.37492,235.97914 85.520768,231.95831 71.8125,223.91682 58.145795,215.87499 47.291639,204.97917 39.25,191.22932 31.208322,177.4792 27.187493,162.66671 27.1875,146.79182 l 0,-0.625 c -7e-6,-15.95841 4.020822,-30.81256 12.0625,-44.5625 8.041639,-13.750031 18.895795,-24.666687 32.5625,-32.75 13.708268,-8.04167 28.56242,-12.0625 44.5625,-12.0625 l 0.625,0 c 16.04155,0 30.89571,4.02083 44.5625,12.0625 13.66651,8.083313 24.49983,18.999969 32.5,32.75 8.04148,13.74994 12.06231,28.60409 12.0625,44.5625 l 0,0.625 c -1.9e-4,15.87489 -4.02102,30.68738 -12.0625,44.4375 -8.00017,13.74985 -18.83349,24.64567 -32.5,32.6875 -13.66679,8.04149 -28.52095,12.06232 -44.5625,12.0625 l -0.625,0 m -51.0625,-30.3125 c 3.666618,3.16651 7.479114,5.91651 11.4375,8.25 3.999939,2.37484 8.208268,4.37484 12.625,6 4.416593,1.62484 8.874922,2.854 13.375,3.6875 4.54158,0.83317 9.16657,1.24983 13.875,1.25 4.70823,-1.7e-4 9.33323,-0.41683 13.875,-1.25 4.58322,-0.8335 9.10405,-2.0835 13.5625,-3.75 4.4582,-1.66683 8.66653,-3.68766 12.625,-6.0625 3.99986,-2.37515 7.74986,-5.08348 11.25,-8.125 l -51.3125,-51.3125 -51.3125,51.3125 m -7.8125,-7.8125 51.3125,-51.4375 -51.3125,-51.5 c -3.125034,3.624959 -5.854198,7.41662 -8.1875,11.375 -2.33336,3.95828 -4.333358,8.18744 -6,12.6875 -1.666688,4.49993 -2.916687,8.99993 -3.75,13.5 -0.833352,4.54159 -1.250018,9.18742 -1.25,13.9375 -1.8e-5,6.20824 0.749981,12.3749 2.25,18.5 1.499978,6.16655 3.687476,12.02071 6.5625,17.5625 2.87497,5.5832 6.3333,10.7082 10.375,15.375 m 118.25,0 c 3.12484,-3.5418 5.85401,-7.31263 8.1875,-11.3125 2.37483,-4.00013 4.37483,-8.22929 6,-12.6875 1.6665,-4.41678 2.91649,-8.95844 3.75,-13.625 0.87483,-4.6251 1.31232,-9.22926 1.3125,-13.8125 -1.8e-4,-6.20842 -0.75017,-12.35424 -2.25,-18.4375 -1.4585,-6.0834 -3.646,-11.93756 -6.5625,-17.5625 -2.91683,-5.58338 -6.39599,-10.750043 -10.4375,-15.5 l -51.3125,51.5 51.3125,51.4375 m -59.125,-59.375 51.3125,-51.375 c -3.50014,-3.041694 -7.25014,-5.750024 -11.25,-8.125 -3.95847,-2.37502 -8.14596,-4.395851 -12.5625,-6.0625 -4.37512,-1.625014 -8.89595,-2.875013 -13.5625,-3.75 -4.66677,-0.833345 -9.3126,-1.250011 -13.9375,-1.25 -9.29175,-1.1e-5 -18.395912,1.645821 -27.3125,4.9375 -8.87506,3.333314 -16.875052,8.083309 -24,14.25 l 51.3125,51.375"
         style="font-size:128px;font-variant:normal;font-weight:bold;font-stretch:normal;font-family:cmex10;-inkscape-font-specification:cmex10 Bold"
         id="path2994"
         inkscape:connector-curvature="0" />
    </g>
    <g
       transform="matrix(0.71533357,0,0,0.71433554,-17.788216,885.08308)"
       style="font-size:40px;font-style:normal;font-weight:normal;line-height:125%;letter-spacing:0px;word-spacing:0px;fill:#4d4d4d;fill-opacity:1;stroke:none;font-family:Sans"
       id="flowRoot2985-4">
      <path
         d="M 116.375,235.97932 C 100.37492,235.97914 85.520768,231.95831 71.8125,223.91682 58.145795,215.87499 47.291639,204.97917 39.25,191.22932 31.208322,177.4792 27.187493,162.66671 27.1875,146.79182 l 0,-0.625 c -7e-6,-15.95841 4.020822,-30.81256 12.0625,-44.5625 8.041639,-13.750031 18.895795,-24.666687 32.5625,-32.75 13.708268,-8.04167 28.56242,-12.0625 44.5625,-12.0625 l 0.625,0 c 16.04155,0 30.89571,4.02083 44.5625,12.0625 13.66651,8.083313 24.49983,18.999969 32.5,32.75 8.04148,13.74994 12.06231,28.60409 12.0625,44.5625 l 0,0.625 c -1.9e-4,15.87489 -4.02102,30.68738 -12.0625,44.4375 -8.00017,13.74985 -18.83349,24.64567 -32.5,32.6875 -13.66679,8.04149 -28.52095,12.06232 -44.5625,12.0625 l -0.625,0 m -51.0625,-30.3125 c 3.666618,3.16651 7.479114,5.91651 11.4375,8.25 3.999939,2.37484 8.208268,4.37484 12.625,6 4.416593,1.62484 8.874922,2.854 13.375,3.6875 4.54158,0.83317 9.16657,1.24983 13.875,1.25 4.70823,-1.7e-4 9.33323,-0.41683 13.875,-1.25 4.58322,-0.8335 9.10405,-2.0835 13.5625,-3.75 4.4582,-1.66683 8.66653,-3.68766 12.625,-6.0625 3.99986,-2.37515 7.74986,-5.08348 11.25,-8.125 l -51.3125,-51.3125 -51.3125,51.3125 m -7.8125,-7.8125 51.3125,-51.4375 -51.3125,-51.5 c -3.125034,3.624959 -5.854198,7.41662 -8.1875,11.375 -2.33336,3.95828 -4.333358,8.18744 -6,12.6875 -1.666688,4.49993 -2.916687,8.99993 -3.75,13.5 -0.833352,4.54159 -1.250018,9.18742 -1.25,13.9375 -1.8e-5,6.20824 0.749981,12.3749 2.25,18.5 1.499978,6.16655 3.687476,12.02071 6.5625,17.5625 2.87497,5.5832 6.3333,10.7082 10.375,15.375 m 118.25,0 c 3.12484,-3.5418 5.85401,-7.31263 8.1875,-11.3125 2.37483,-4.00013 4.37483,-8.22929 6,-12.6875 1.6665,-4.41678 2.91649,-8.95844 3.75,-13.625 0.87483,-4.6251 1.31232,-9.22926 1.3125,-13.8125 -1.8e-4,-6.20842 -0.75017,-12.35424 -2.25,-18.4375 -1.4585,-6.0834 -3.646,-11.93756 -6.5625,-17.5625 -2.91683,-5.58338 -6.39599,-10.750043 -10.4375,-15.5 l -51.3125,51.5 51.3125,51.4375 m -59.125,-59.375 51.3125,-51.375 c -3.50014,-3.041694 -7.25014,-5.750024 -11.25,-8.125 -3.95847,-2.37502 -8.14596,-4.395851 -12.5625,-6.0625 -4.37512,-1.625014 -8.89595,-2.875013 -13.5625,-3.75 -4.66677,-0.833345 -9.3126,-1.250011 -13.9375,-1.25 -9.29175,-1.1e-5 -18.395912,1.645821 -27.3125,4.9375 -8.87506,3.333314 -16.875052,8.083309 -24,14.25 l 51.3125,51.375"
         style="font-size:128px;font-variant:normal;font-weight:bold;font-stretch:normal;fill:#4d4d4d;font-family:cmex10;-inkscape-font-specification:cmex10 Bold"
         id="path2994-3"
         inkscape:connector-curvature="0" />
    </g>
  </g>
</svg>
